<?xml version="1.0" encoding="utf-8"?>
<!-- Generator: Adobe Illustrator 21.0.0, SVG Export Plug-In . SVG Version: 6.00 Build 0)  -->
<svg version="1.1" xmlns="http://www.w3.org/2000/svg" xmlns:xlink="http://www.w3.org/1999/xlink" x="0px" y="0px"
	 viewBox="0 0 1920 1080" style="enable-background:new 0 0 1920 1080;" xml:space="preserve">
<style type="text/css">
	.st0{display:none;}
	.st1{display:inline;fill:#EFAFDE;}
	.st2{fill:#AFF2EB;}
	.st3{display:none;fill:#35E8ED;}
	.st4{fill:#35E8ED;}
	.st5{fill:#36EA3B;}
	.st6{font-family:'MyriadPro-Regular';}
	.st7{font-size:368.8058px;}
</style>
<g id="Layer_3" class="st0">
	<path class="st1" d="M-101,481.1c0,0,33.8-496.1,331.9-108.1c0,0,135.1,173,198.1-42c36.8-125.5,297.4-393.8,574-44
		c0,0,176.7,212.7,426-104c235.3-298.8,552,50,552,50l128,618l128,604L461,1257l-974-16L-101,481.1z"/>
</g>
<g id="Layer_2">
	<rect x="0" class="st2" width="1920" height="1080"/>
</g>
<g id="Layer_1">
	<path class="st3" d="M-370.4,73.6c0,0,148.5-51,196.5,61.5c0,0,37.5,71.8,19.5,179.9c0,0-27.8,102.4-105.6,180.1L-370.4,73.6z"/>
	<path class="st4" d="M474.3,828.7L474.3,828.7c0,0,1012.6-1049.8,1508.7-21C2555.7,1995.2,454.8,1646.7,474.3,828.7L474.3,828.7
		L474.3,828.7z"/>
	<path class="st5" d="M-493,852.8c0,0,642-594,1280-16S-291,1667-291,1667L-493,852.8z"/>
	<path class="st3" d="M591,358.9c0,0,104-38,394-20c0,0,92-2,72,160c0,0-22,144.2-136,157.1c0,0-314,2.9-382-89.1
		C539,566.9,465,430.9,591,358.9z"/>
	<text transform="matrix(1 0 0 1 53 740.8008)" class="st0 st6 st7">yolo 2019</text>
</g>
</svg>
