<?xml version="1.0" encoding="utf-8"?>
<!-- Generator: Adobe Illustrator 21.0.0, SVG Export Plug-In . SVG Version: 6.00 Build 0)  -->
<svg version="1.1" xmlns="http://www.w3.org/2000/svg" xmlns:xlink="http://www.w3.org/1999/xlink" x="0px" y="0px"
	 viewBox="0 0 1920 1080" style="enable-background:new 0 0 1920 1080;" xml:space="preserve">
<style type="text/css">
	.st0{fill:#AFF2EB;}
	.st1{fill:#35E8ED;}
	.st2{fill:#36EA3B;}
</style>
<g id="Layer_2">
	<rect x="-17.2" y="-22" class="st0" width="1920" height="1080"/>
</g>
<g id="Layer_1">
	<path class="st1" d="M-110.4,220.6c0,0,148.5-51,196.5,61.5c0,0,37.5,71.8,19.5,179.9c0,0-27.8,102.4-105.6,180.1L-110.4,220.6z"/>
	<path class="st1" d="M530.3,1080L530.3,1080c0,0,931.2-1006.5,1508.7-21S530.3,1080,530.3,1080L530.3,1080L530.3,1080z"/>
	<path class="st2" d="M-481,1095c0,0,642-594,1280-16s-1054,252-1054,252L-481,1095z"/>
	<path class="st1" d="M449,345c0,0,104-38,394-20c0,0,92-2,72,160c0,0-22,144.2-136,157.1c0,0-314,2.9-382-89.1
		C397,553,323,417,449,345z"/>
</g>
</svg>
