<?xml version="1.0" encoding="utf-8"?>
<!-- Generator: Adobe Illustrator 21.0.0, SVG Export Plug-In . SVG Version: 6.00 Build 0)  -->
<svg version="1.1" id="Layer_1" xmlns="http://www.w3.org/2000/svg" xmlns:xlink="http://www.w3.org/1999/xlink" x="0px" y="0px"
	 viewBox="0 0 1920 3000" style="enable-background:new 0 0 1920 3000;" xml:space="preserve">
<style type="text/css">
	.st0{fill:#F6F5DF;}
	.st1{fill:#B4E55C;}
	.st2{fill:#49C0DC;}
	.st3{fill:#F8878F;}
	.st4{fill:#CC48ED;stroke:#000000;stroke-miterlimit:10;}
</style>
<rect x="-0.5" y="0" class="st0" width="1920" height="2997.9"/>
<path class="st1" d="M-25.9,1302.3c0,0,613.4-888.3,1302.4-877.8c0,0,686,35.4,755.6,438.9v294.4l-1072.6,55.6L-25.9,1302.3z"/>
<path class="st2" d="M-195.7,813.4c0,0,377.8-672.2,1522.4,381l-594.6,19l-888.9,88.9L-195.7,813.4z"/>
<path class="st3" d="M-432,1245.7c0,0,272-384.6,688-170.5c0,0,188,105.6,292,52.8c104-52.8,189.6-243,516,18.5
	c0,0,189.6,117.6,272-66.7c112.5-251.6,572-512.1,1032,641.6l-46.5,1141.4c0,0-630.1-417-1011.1-69c-274.5,250.7-510.1,93-681.1-174
	c-306-504.1-780.1-27-780.1-27L-432,1245.7z"/>
<path class="st4" d="M3344.5,1109"/>
</svg>
