<?xml version="1.0" encoding="utf-8"?>
<!-- Generator: Adobe Illustrator 21.0.0, SVG Export Plug-In . SVG Version: 6.00 Build 0)  -->
<svg version="1.1" xmlns="http://www.w3.org/2000/svg" xmlns:xlink="http://www.w3.org/1999/xlink" x="0px" y="0px"
	 viewBox="0 0 1920 5000" style="enable-background:new 0 0 1920 5000;" xml:space="preserve">
<style type="text/css">
	.st0{fill:#AFEFE8;stroke:#000000;stroke-miterlimit:10;}
	.st1{fill:#30EA26;}
	.st2{fill:#ED9724;}
	.st3{fill:#CC48ED;}
	.st4{fill:#CC48ED;stroke:#000000;stroke-miterlimit:10;}
</style>
<g id="Layer_1">
	<rect class="st0" width="1920" height="5000"/>
</g>
<g id="Layer_3">
	<path class="st1" d="M-25.4,1302.3c0,0,613.4-888.3,1302.4-877.8c0,0,686,35.4,755.6,438.9v294.4L960,1213.4L-25.4,1302.3z"/>
</g>
<g id="Layer_2">
	<path class="st2" d="M-195.2,813.4c0,0,377.8-672.2,1522.4,381l-594.6,19l-888.9,88.9L-195.2,813.4z"/>
</g>
<g id="Layer_4">
	<path class="st3" d="M-431.5,1249c0,0,272-388,688-172c0,0,188,106.6,292,53.3s189.6-245.1,516,18.7c0,0,189.6,118.7,272-67.3
		c112.5-253.9,572-516.7,1032,647.3l-76,528c0,0-736-400-1048-196s-748.7,133.7-896.7-146.3c-126-225-543-78-543-78L-431.5,1249z"/>
	<path class="st4" d="M3345,1109"/>
</g>
</svg>
