<?xml version="1.0" encoding="utf-8"?>
<!-- Generator: Adobe Illustrator 21.0.0, SVG Export Plug-In . SVG Version: 6.00 Build 0)  -->
<svg version="1.1" id="Layer_1" xmlns="http://www.w3.org/2000/svg" xmlns:xlink="http://www.w3.org/1999/xlink" x="0px" y="0px"
	 viewBox="0 0 1920 3000" style="enable-background:new 0 0 1920 3000;" xml:space="preserve">
<rect x="-0.5" y="0" style="fill:#F6F5DF;" width="1920" height="2997.9"/>
<path style="fill:#B4E55C;" d="M-25.9,1302.3c0,0,591.4-890.3,1302.4-877.8c0,0,696.5,21.4,755.6,438.9v294.4l-1072.6,55.6
	L-25.9,1302.3z"/>
<path style="fill:#49C0DC;" d="M-195.7,813.4c0,0,377.8-672.2,1522.4,381l-594.6,19l-888.9,88.9L-195.7,813.4z"/>
<path style="fill:#F8878F;" d="M1513,2571c387-387,802,293.4,802,293.4l46.5-1141.4c-460-1153.8-919.5-893.3-1032-641.6
	c-82.4,184.4-272,66.7-272,66.7c-326.4-261.5-412-71.4-516-18.5c-104,52.8-292-52.8-292-52.8c-416-214.1-688,170.5-688,170.5
	l281.2,1347.2l0,0c0,0,94.4,291.7,644.8,27c0,0,274-135.6,498.3,22C1075,2706,1326.7,2745,1513,2571L1513,2571z"/>
<path style="fill:#CC48ED;stroke:#000000;stroke-miterlimit:10;" d="M3344.5,1109"/>
<g>
	<path d="M160.8,366.8c-18-0.1-33.3-6.4-46-19c-12.8-12.8-19.1-28.1-19.1-46.1c0-17.9,6.4-33.3,19.1-46.2
		c12.8-12.8,28.1-19.2,46-19.2l-0.1,0.3c19.8,0,35.6,8.8,46.3,19.1l-18.4,18.4c-7.8-7.7-17-11.5-27.7-11.5c-10.8,0-20,3.8-27.6,11.5
		c-7.7,7.8-11.5,17-11.5,27.7c0,10.8,3.8,20,11.5,27.7c7.6,7.6,16.8,11.4,27.6,11.4c10.8,0,20.1-3.8,27.8-11.5l18.4,18.4
		C196.5,358.3,180.9,366.8,160.8,366.8z"/>
	<path d="M246.8,287c0-3.6-1.6-6.9-4.7-9.7c-3.1-2.8-7.6-4.4-13.5-4.7l3.2-6.2c3.9-0.7,6.8-2,8.6-3.9c1.8-1.8,2.7-3.9,2.7-6.1
		l-0.1,0.1c0-3.3-2.7-6-6-6c-3.1,0-5.4,2.2-5.9,4.8l-15-3.2c2-8.9,10.3-16.8,20.9-16.8c5.8,0,10.8,2.1,15.1,6.2
		c4.2,4.2,6.2,9.2,6.2,15.1c0,4.8-1.4,9-4.1,12.7c0.2,0.2,0.4,0.3,0.5,0.4c5,4.8,7.5,10.6,7.5,17.4c0,6.8-2.5,12.6-7.5,17.4
		c-4.9,4.7-10.8,7.1-17.7,7.1c-5.7,0-10.8-1.7-15.3-5.1c-4.6-3.5-7.6-8-9-13.4l14.8-3.8c0.8,3.8,4.9,7,9.6,7
		C242.3,296.2,246.8,292.3,246.8,287z"/>
	<path d="M445.5,237.1v25.8h-51.7v25.9h38.8v25.8h-38.8v51.6H368v-129H445.5z"/>
	<path d="M534.2,237.1v25.8h-51.7v25.9h38.8v25.8h-38.8v25.9h51.7v25.7h-77.5v-129H534.2z"/>
	<path d="M581.2,340.6c7.1,0,15-5.9,15-13.1c0-11.7-15.8-13.4-24.6-16.5c-15.7-5.3-29.5-18.2-29.5-35.7c0-21.7,17.6-39.1,39.3-39.1
		c19.8,0,36.1,14.7,38.8,33.7l-25.7,5.4c0-7.1-5.9-13-13-13c-7.2,0-13.1,5.9-13.1,13.1c0,11.6,14.7,14.7,23.6,17.3
		c16.2,4.7,30.5,17,30.5,34.9c0,21.7-19.5,39.2-41.1,39.2c-19.9,0-37.9-14.6-40.8-33.7l25.7-5.5c0,7.2,7.8,13,15,13L581.2,340.6z"/>
	<path d="M718,237.4V263h-31.6v102.9h-25.9V263h-31.7v-25.6H718z"/>
</g>
<g>
	<path d="M992.9,561.1h-3.2h-3.2h-3.2h-7.9c-2,0-3.8-0.4-5.6-1.1c-1.7-0.7-3.3-1.8-4.6-3.1c-1.3-1.3-2.3-2.8-3.1-4.6
		c-0.7-1.7-1.1-3.6-1.1-5.6c0-2,0.4-3.8,1.1-5.5c0.7-1.7,1.8-3.2,3.1-4.5c1.3-1.3,2.8-2.3,4.6-3.1c1.7-0.7,3.6-1.1,5.6-1.1h7.9h6.3
		v22.2h3.2V561.1z M975.5,538.8c-1.1,0-2.1,0.2-3.1,0.6c-1,0.4-1.8,1-2.5,1.7c-0.7,0.7-1.3,1.6-1.7,2.5c-0.4,1-0.6,2-0.6,3.1
		s0.2,2.1,0.6,3.1c0.4,1,1,1.8,1.7,2.5c0.7,0.7,1.6,1.3,2.5,1.7c1,0.4,2,0.6,3.1,0.6h7.9v-15.9H975.5z"/>
	<path d="M1050.2,561.1h-3.2h-3.2h-8c-2,0-3.8-0.4-5.6-1.1c-1.7-0.7-3.3-1.8-4.6-3.1c-1.3-1.3-2.3-2.8-3.1-4.6
		c-0.7-1.7-1.1-3.6-1.1-5.6c0-2,0.4-3.8,1.1-5.6c0.7-1.7,1.8-3.3,3.1-4.6s2.8-2.3,4.6-3.1c1.7-0.7,3.6-1.1,5.6-1.1h8v-15.2h-3.2
		v-6.4h3.2h3.2h3.2V561.1z M1036,538.8c-1.1,0-2.1,0.2-3.1,0.6c-1,0.4-1.8,1-2.5,1.7c-0.7,0.7-1.3,1.6-1.7,2.5c-0.4,1-0.6,2-0.6,3.1
		s0.2,2.1,0.6,3.1s1,1.8,1.7,2.5c0.7,0.7,1.6,1.3,2.5,1.7c1,0.4,2,0.6,3.1,0.6h8v-15.9H1036z"/>
	<path d="M1088.4,561.1h-3.2h-3.2h-3.2h-7.9c-2,0-3.8-0.4-5.6-1.1c-1.7-0.7-3.3-1.8-4.6-3.1c-1.3-1.3-2.3-2.8-3.1-4.6
		c-0.7-1.7-1.1-3.6-1.1-5.6c0-2,0.4-3.8,1.1-5.5c0.7-1.7,1.8-3.2,3.1-4.5s2.8-2.3,4.6-3.1c1.7-0.7,3.6-1.1,5.6-1.1h7.9h6.3v22.2h3.2
		V561.1z M1071.1,538.8c-1.1,0-2.1,0.2-3.1,0.6c-1,0.4-1.8,1-2.5,1.7c-0.7,0.7-1.3,1.6-1.7,2.5c-0.4,1-0.6,2-0.6,3.1
		s0.2,2.1,0.6,3.1c0.4,1,1,1.8,1.7,2.5c0.7,0.7,1.6,1.3,2.5,1.7c1,0.4,2,0.6,3.1,0.6h7.9v-15.9H1071.1z"/>
	<path d="M1125.1,538.2v8.3v21.1c0,2.1-0.4,4-1.2,5.8c-0.8,1.8-1.9,3.4-3.2,4.7s-2.9,2.4-4.7,3.2c-1.8,0.8-3.8,1.2-5.8,1.2v-6.5
		c1.1,0,2.2-0.2,3.2-0.7c1-0.5,1.9-1.1,2.7-1.8c0.8-0.7,1.4-1.6,1.8-2.7c0.4-1,0.6-2.1,0.6-3.3V559c-1.2,0.8-2.5,1.4-3.9,1.9
		c-1.4,0.4-2.9,0.6-4.4,0.6c-2.1,0-4-0.4-5.8-1.2c-1.8-0.8-3.4-1.9-4.7-3.2c-1.3-1.3-2.4-2.9-3.2-4.7c-0.8-1.8-1.2-3.8-1.2-5.8v-8.3
		v-5.6h6.6v5.6v1.9v6.4c0,1.1,0.2,2.2,0.6,3.3c0.4,1,1,1.9,1.8,2.7s1.7,1.3,2.7,1.8s2.1,0.6,3.2,0.6c1.1,0,2.2-0.2,3.2-0.6
		c1-0.4,1.9-1,2.7-1.8c0.8-0.7,1.4-1.6,1.8-2.7c0.4-1,0.6-2.1,0.6-3.3v-6.4v-0.9h-3.2v-6.6h3.2h3.3h3.3V538.2z"/>
	<path d="M1176.3,533c1.8,0.8,3.4,1.9,4.7,3.2s2.4,3,3.2,4.8c0.8,1.8,1.2,3.8,1.2,5.8c0,2.1-0.4,4-1.2,5.8c-0.8,1.8-1.9,3.4-3.2,4.8
		s-2.9,2.4-4.7,3.2s-3.7,1.2-5.8,1.2c-2.1,0-4.1-0.4-5.9-1.2s-3.4-1.9-4.7-3.2s-2.4-3-3.2-4.8c-0.8-1.8-1.2-3.8-1.2-5.8
		c0-2.1,0.4-4,1.2-5.8c0.8-1.8,1.9-3.4,3.2-4.8s2.9-2.4,4.7-3.2s3.8-1.2,5.9-1.2C1172.6,531.8,1174.5,532.2,1176.3,533z
		 M1173.7,554.5c1-0.5,1.9-1.1,2.7-1.8c0.8-0.7,1.4-1.6,1.8-2.7c0.4-1,0.6-2.1,0.6-3.3s-0.2-2.2-0.6-3.2c-0.4-1-1-1.9-1.8-2.7
		c-0.8-0.8-1.7-1.4-2.7-1.8c-1-0.4-2.1-0.6-3.2-0.6c-1.1,0-2.2,0.2-3.3,0.6c-1,0.4-1.9,1-2.7,1.8c-0.8,0.8-1.4,1.7-1.8,2.7
		s-0.6,2.1-0.6,3.2s0.2,2.2,0.6,3.3s1,1.9,1.8,2.7c0.8,0.7,1.7,1.3,2.7,1.8c1,0.5,2.1,0.7,3.3,0.7
		C1171.7,555.2,1172.7,555,1173.7,554.5z"/>
	<path d="M1201.8,517.9c-1,0.4-1.8,1-2.5,1.7s-1.3,1.6-1.7,2.5s-0.6,2-0.6,3.1v7.3h8v6.3h-8v22.2h-6.3v-35.8c0-2,0.4-3.8,1.1-5.6
		c0.7-1.7,1.8-3.3,3.1-4.6s2.8-2.3,4.6-3.1s3.6-1.1,5.6-1.1v6.3C1203.8,517.3,1202.8,517.5,1201.8,517.9z"/>
	<path d="M1263,532.5v4.2v2.4l-12.7,10.3l-6.5,5.2h4.5h14.7v6.5h-14.7h-14.8v-4.2v-2.4l12.7-10.3l6.5-5.2h-4.4h-14.8v-6.5h14.8H1263
		z"/>
	<path d="M1296.7,549.9h-21.6c0.6,1.4,1.6,2.5,2.9,3.4c1.3,0.9,2.8,1.4,4.5,1.4h6.1h1.9h3.2v6.3h-3.2h-8c-2,0-3.8-0.4-5.6-1.1
		c-1.7-0.7-3.3-1.8-4.6-3.1c-1.3-1.3-2.3-2.8-3.1-4.6c-0.7-1.7-1.1-3.6-1.1-5.6c0-2,0.4-3.8,1.1-5.6c0.7-1.7,1.8-3.3,3.1-4.6
		s2.8-2.3,4.6-3.1c1.7-0.7,3.6-1.1,5.6-1.1s3.8,0.4,5.5,1.1c1.7,0.7,3.2,1.8,4.5,3.1c1.3,1.3,2.3,2.8,3.1,4.6
		c0.8,1.7,1.1,3.6,1.1,5.6V549.9z M1278,540.1c-1.3,0.9-2.3,2-2.9,3.5h14.6c-0.6-1.4-1.6-2.6-2.9-3.5c-1.3-0.9-2.8-1.3-4.5-1.3
		S1279.3,539.3,1278,540.1z"/>
	<path d="M1302.9,541.4c0.8-1.8,1.8-3.4,3.2-4.7c1.3-1.3,2.9-2.4,4.7-3.2s3.7-1.1,5.8-1.1v6.5c-1.1,0-2.2,0.2-3.2,0.6
		c-1,0.4-1.9,1-2.6,1.8c-0.8,0.8-1.4,1.6-1.8,2.6c-0.4,1-0.6,2-0.6,3.2v2.1v3.9v7.9h-6.5v-13.9
		C1301.8,545.2,1302.1,543.2,1302.9,541.4z"/>
	<path d="M1341.4,533c1.8,0.8,3.4,1.9,4.7,3.2s2.4,3,3.2,4.8c0.8,1.8,1.2,3.8,1.2,5.8c0,2.1-0.4,4-1.2,5.8c-0.8,1.8-1.9,3.4-3.2,4.8
		s-2.9,2.4-4.7,3.2s-3.7,1.2-5.8,1.2c-2.1,0-4.1-0.4-5.9-1.2s-3.4-1.9-4.7-3.2s-2.4-3-3.2-4.8c-0.8-1.8-1.2-3.8-1.2-5.8
		c0-2.1,0.4-4,1.2-5.8c0.8-1.8,1.9-3.4,3.2-4.8s2.9-2.4,4.7-3.2s3.8-1.2,5.9-1.2C1337.7,531.8,1339.6,532.2,1341.4,533z
		 M1338.9,554.5c1-0.5,1.9-1.1,2.7-1.8c0.8-0.7,1.4-1.6,1.8-2.7c0.4-1,0.6-2.1,0.6-3.3s-0.2-2.2-0.6-3.2c-0.4-1-1-1.9-1.8-2.7
		c-0.8-0.8-1.7-1.4-2.7-1.8c-1-0.4-2.1-0.6-3.2-0.6c-1.1,0-2.2,0.2-3.3,0.6c-1,0.4-1.9,1-2.7,1.8c-0.8,0.8-1.4,1.7-1.8,2.7
		s-0.6,2.1-0.6,3.2s0.2,2.2,0.6,3.3s1,1.9,1.8,2.7c0.8,0.7,1.7,1.3,2.7,1.8c1,0.5,2.1,0.7,3.3,0.7
		C1336.8,555.2,1337.9,555,1338.9,554.5z"/>
	<path d="M1399.4,533.6c1.7,0.7,3.3,1.8,4.6,3.1c1.3,1.3,2.3,2.8,3.1,4.6c0.7,1.7,1.1,3.6,1.1,5.6c0,2-0.4,3.8-1.1,5.6
		c-0.7,1.7-1.8,3.3-3.1,4.6c-1.3,1.3-2.8,2.3-4.6,3.1c-1.7,0.7-3.6,1.1-5.6,1.1h-8h-3.2h-3.2v-43.8h-3.2v-6.3h3.2h3.2h3.2v21.5h8
		C1395.8,532.5,1397.6,532.9,1399.4,533.6z M1396.9,554.1c1-0.4,1.8-1,2.5-1.7c0.7-0.7,1.3-1.6,1.7-2.5s0.6-2,0.6-3.1
		s-0.2-2.1-0.6-3.1s-1-1.8-1.7-2.5c-0.7-0.7-1.6-1.3-2.5-1.7c-1-0.4-2-0.6-3.1-0.6h-8v15.9h8
		C1394.9,554.8,1395.9,554.5,1396.9,554.1z"/>
	<path d="M1420.6,538v1.9v6.3c0,1.1,0.2,2.2,0.6,3.2c0.4,1,1,1.9,1.8,2.6c0.7,0.7,1.6,1.3,2.6,1.8c1,0.4,2.1,0.6,3.2,0.6
		c1.1,0,2.2-0.2,3.2-0.6c1-0.4,1.9-1,2.6-1.8c0.7-0.7,1.3-1.6,1.8-2.6s0.6-2.1,0.6-3.2V540V538v-5.5h6.5v5.5v8.3
		c0,2.1-0.4,4-1.1,5.8c-0.8,1.8-1.8,3.4-3.2,4.7c-1.3,1.3-2.9,2.4-4.7,3.2s-3.7,1.1-5.8,1.1s-4-0.4-5.8-1.1
		c-1.8-0.8-3.4-1.8-4.7-3.2c-1.3-1.3-2.4-2.9-3.2-4.7c-0.8-1.8-1.1-3.7-1.1-5.8V538v-5.5h6.5V538z"/>
	<path d="M1451.6,541.4c0.8-1.8,1.8-3.4,3.2-4.7c1.3-1.3,2.9-2.4,4.7-3.2s3.7-1.1,5.8-1.1v6.5c-1.1,0-2.2,0.2-3.2,0.6
		c-1,0.4-1.9,1-2.6,1.8c-0.8,0.8-1.4,1.6-1.8,2.6c-0.4,1-0.6,2-0.6,3.2v2.1v3.9v7.9h-6.5v-13.9
		C1450.5,545.2,1450.8,543.2,1451.6,541.4z"/>
	<path d="M1497.8,561.1h-3.2h-3.2h-8c-2,0-3.8-0.4-5.6-1.1c-1.7-0.7-3.3-1.8-4.6-3.1c-1.3-1.3-2.3-2.8-3.1-4.6
		c-0.7-1.7-1.1-3.6-1.1-5.6c0-2,0.4-3.8,1.1-5.6c0.7-1.7,1.8-3.3,3.1-4.6c1.3-1.3,2.8-2.3,4.6-3.1c1.7-0.7,3.6-1.1,5.6-1.1h8v-15.2
		h-3.2v-6.4h3.2h3.2h3.2V561.1z M1483.5,538.8c-1.1,0-2.1,0.2-3.1,0.6c-1,0.4-1.8,1-2.5,1.7c-0.7,0.7-1.3,1.6-1.7,2.5
		c-0.4,1-0.6,2-0.6,3.1s0.2,2.1,0.6,3.1c0.4,1,1,1.8,1.7,2.5c0.7,0.7,1.6,1.3,2.5,1.7c1,0.4,2,0.6,3.1,0.6h8v-15.9H1483.5z"/>
	<path d="M1533,549.9h-21.6c0.6,1.4,1.6,2.5,2.9,3.4c1.3,0.9,2.8,1.4,4.5,1.4h6.1h1.9h3.2v6.3h-3.2h-8c-2,0-3.8-0.4-5.6-1.1
		c-1.7-0.7-3.3-1.8-4.6-3.1c-1.3-1.3-2.3-2.8-3.1-4.6c-0.7-1.7-1.1-3.6-1.1-5.6c0-2,0.4-3.8,1.1-5.6c0.7-1.7,1.8-3.3,3.1-4.6
		c1.3-1.3,2.8-2.3,4.6-3.1c1.7-0.7,3.6-1.1,5.6-1.1s3.8,0.4,5.5,1.1c1.7,0.7,3.2,1.8,4.5,3.1c1.3,1.3,2.3,2.8,3.1,4.6
		c0.8,1.7,1.1,3.6,1.1,5.6V549.9z M1514.2,540.1c-1.3,0.9-2.3,2-2.9,3.5h14.6c-0.6-1.4-1.6-2.6-2.9-3.5c-1.3-0.9-2.8-1.3-4.5-1.3
		S1515.5,539.3,1514.2,540.1z"/>
	<path d="M1561.4,533.6c1.8,0.8,3.4,1.8,4.7,3.2c1.3,1.3,2.4,2.9,3.2,4.7c0.8,1.8,1.1,3.7,1.1,5.8v8.3v5.5h-6.5v-5.5v-1.9v-6.3
		c0-1.1-0.2-2.2-0.6-3.2s-1-1.9-1.8-2.6c-0.7-0.7-1.6-1.3-2.6-1.8c-1-0.4-2.1-0.6-3.2-0.6c-1.1,0-2.2,0.2-3.2,0.6
		c-1,0.4-1.9,1-2.6,1.8c-0.8,0.7-1.4,1.6-1.8,2.6c-0.4,1-0.6,2.1-0.6,3.2v6.3v1.9v5.5h-6.5v-5.5v-8.3V539h-3.2v-6.5h3.2h3.3h3.2v2.5
		c1.2-0.8,2.5-1.4,3.9-1.9c1.4-0.4,2.8-0.6,4.4-0.6C1557.6,532.5,1559.6,532.9,1561.4,533.6z"/>
</g>
<rect x="825" y="34" width="158" height="30"/>
<rect x="1035.5" y="34" width="158" height="30"/>
<rect x="1247.7" y="34" width="158" height="30"/>
<rect x="1461.7" y="34" width="158" height="30"/>
<rect x="1673.7" y="34" width="158" height="30"/>
<g>
</g>
<g>
</g>
<g>
</g>
<g>
</g>
<g>
</g>
</svg>
